<?xml version="1.0" encoding="utf-8"?>
<!-- Generator: Adobe Illustrator 27.9.6, SVG Export Plug-In . SVG Version: 9.03 Build 54986)  -->
<svg version="1.1" xmlns="http://www.w3.org/2000/svg" xmlns:xlink="http://www.w3.org/1999/xlink" x="0px" y="0px"
	 viewBox="0 0 940.8 214.5" style="enable-background:new 0 0 940.8 214.5;" xml:space="preserve">
<g id="Layer_1">
	<g>
		<path d="M569.3,149.9h-8.8v-13.6h8.8c5.4,0,10.9-1.4,14.5-5.1c3.6-3.8,4.9-9.5,4.9-15.3s-1.3-11.6-4.9-15.3
			c-3.6-3.7-9-5.1-14.5-5.1c-5.4,0-10.9,1.4-14.5,5.1c-3.6,3.7-4.9,9.5-4.9,15.3v55.9h-15.4V81.8H550v5.7h2.8c0.3-0.3,0.6-0.7,0.9-1
			c3.8-3.5,9.8-4.8,15.6-4.8c9.1,0,18.2,2.2,24.1,8.5c5.9,6.3,8.1,15.9,8.1,25.5s-2.1,19.2-8.1,25.5
			C587.6,147.6,578.4,149.8,569.3,149.9L569.3,149.9z"/>
		<path d="M335,84.2h8.8v13.6H335c-5.4,0-10.9,1.3-14.5,5.1c-3.6,3.7-4.9,9.5-4.9,15.3c0,5.8,1.3,11.5,4.9,15.3
			c3.6,3.8,9,5.1,14.5,5.1s10.9-1.3,14.5-5.1c3.5-3.7,4.9-9.5,4.9-15.3v-56h15.4v89.9h-15.4v-5.7h-2.8c-0.3,0.3-0.6,0.6-0.9,0.9
			c-3.8,3.5-9.7,4.8-15.6,4.8c-9.1,0-18.2-2.2-24.1-8.5c-5.9-6.3-8.1-15.9-8.1-25.5s2.1-19.2,8.1-25.5
			C316.9,86.5,325.9,84.3,335,84.2L335,84.2z"/>
		<path d="M447,117.1v5.4h-41v-10.9h27.2c-0.6-3.9-2-7.7-4.6-10.4c-3.7-3.9-9.4-5.3-15-5.3c-5.6,0-11.3,1.4-15,5.3
			c-3.7,3.9-5.1,9.9-5.1,15.8c0,5.9,1.3,12,5.1,15.8c3.7,3.9,9.4,5.4,15,5.4c5.6,0,11.3-1.4,15-5.4c0.5-0.5,1-1.2,1.5-1.8h15.2
			c-1.3,4.7-3.4,9-6.6,12.3c-6.2,6.5-15.7,8.8-25.1,8.8s-18.9-2.3-25-8.8c-6.1-6.5-8.4-16.5-8.4-26.4s2.2-19.9,8.4-26.4
			c6.2-6.5,15.7-8.9,25-8.9s18.9,2.3,25.1,8.9C444.8,97.2,447,107.1,447,117.1L447,117.1z"/>
		<path d="M524.3,117.1v5.4h-41v-10.9h27.2c-0.6-3.9-2-7.7-4.6-10.4c-3.7-3.9-9.4-5.3-15-5.3c-5.6,0-11.3,1.4-15,5.3
			c-3.7,3.9-5,9.9-5,15.8c0,5.9,1.4,12,5,15.8c3.7,3.9,9.4,5.4,15,5.4c5.6,0,11.3-1.4,15-5.4c0.5-0.5,1-1.2,1.4-1.8h15.2
			c-1.3,4.7-3.4,9-6.6,12.3c-6.2,6.5-15.6,8.8-25.1,8.8s-18.9-2.3-25.1-8.8c-6.1-6.5-8.4-16.5-8.4-26.4s2.2-19.9,8.4-26.4
			c6.2-6.5,15.7-8.9,25.1-8.9s18.9,2.3,25.1,8.9C522,97.2,524.2,107.1,524.3,117.1L524.3,117.1z"/>
		<path d="M645.3,152.2c9.4,0,18.9-1.3,25.1-5.2c6.1-3.9,8.4-9.7,8.4-15.6c0-5.8-2.2-11.8-8.4-15.6c-6.2-3.8-15.7-5.2-25.1-5.2
			c-9.4,0-7.7-0.6-10.3-2c-2.6-1.5-3.6-3.7-3.6-6c0-2.3,0.9-4.6,3.6-6c2.6-1.5,6.7-2,10.7-2c4,0,8.1,0.5,10.7,2
			c2.6,1.5,3.6,3.8,3.6,6h15.7c0-5.8-2-11.7-7.6-15.6c-5.6-3.8-14.2-5.2-22.7-5.2c-8.5,0-17.1,1.4-22.7,5.2
			c-5.6,3.9-7.6,9.7-7.6,15.6c0,5.8,2,11.7,7.6,15.6c5.6,3.8,14.2,5.3,22.7,5.3c8.5,0,9.3,0.5,12.2,2c2.9,1.5,3.9,3.7,3.9,6
			s-1,4.6-3.9,6c-2.9,1.5-7.4,2-11.8,2c-4.4,0-9-0.5-11.8-2c-2.9-1.5-3.9-3.7-3.9-6H612c0,5.8,2.2,11.7,8.4,15.6
			C626.7,150.8,636,152.2,645.3,152.2L645.3,152.2z"/>
		<path d="M756,117.1v5.4h-41v-10.9h27.2c-0.6-3.9-2.1-7.7-4.6-10.4c-3.7-3.9-9.4-5.3-15-5.3s-11.3,1.4-15,5.3
			c-3.7,3.9-5,9.9-5,15.8c0,5.9,1.4,12,5,15.8c3.7,3.9,9.4,5.4,15,5.4s11.3-1.4,15-5.4c0.5-0.5,1-1.2,1.5-1.8h15.2
			c-1.4,4.7-3.4,9-6.6,12.3c-6.1,6.5-15.6,8.8-25.1,8.8c-9.4,0-18.9-2.3-25-8.8c-6.2-6.5-8.4-16.5-8.4-26.4s2.2-19.9,8.4-26.4
			c6.2-6.5,15.7-8.9,25-8.9s18.9,2.3,25.1,8.9C753.9,97.2,756,107.1,756,117.1L756,117.1z"/>
		<path d="M833.3,117.1v5.4h-41v-10.9h27.2c-0.6-3.9-2-7.7-4.6-10.4c-3.7-3.9-9.4-5.3-15-5.3s-11.3,1.4-15,5.3
			c-3.7,3.9-5,9.9-5,15.8c0,5.9,1.3,12,5,15.8c3.7,3.9,9.4,5.4,15,5.4s11.3-1.4,15-5.4c0.5-0.5,1-1.2,1.4-1.8h15.2
			c-1.4,4.7-3.5,9-6.6,12.3c-6.2,6.5-15.7,8.8-25.1,8.8c-9.4,0-18.9-2.3-25.1-8.8c-6.2-6.5-8.4-16.5-8.4-26.4s2.2-19.9,8.4-26.4
			c6.2-6.5,15.6-8.9,25.1-8.9c9.4,0,18.9,2.3,25.1,8.9C831.1,97.2,833.3,107.1,833.3,117.1L833.3,117.1z"/>
		<rect x="843.6" y="59.2" width="15.4" height="93"/>
		<polygon points="885.3,114.9 910.5,152.2 891.5,152.2 866.3,114.9 891.5,85 910.5,85 		"/>
	</g>
</g>
<g id="Layer_2">
	<path d="M196,121.2c-2.1,0.8-4.2,1.6-6.2,1.7c-3.2,0.1-6.6-1.1-8.4-2.7c-2.9-2.4-5-3.8-5.8-8c-0.4-1.8-0.1-4.6,0.1-6.2
		c0.7-3.5-0.1-5.6-2.5-7.7c-2-1.7-4.5-2.1-7.3-2.1c-2.8,0-2-0.4-2.7-0.8c-1.2-0.6-2.1-2-1.2-3.8c0.3-0.6,1.7-2,2-2.2
		c3.7-2.1,8.1-1.4,12.1,0.1c3.7,1.5,6.5,4.3,10.6,8.2c4.1,4.8,4.9,6.1,7.3,9.6c1.8,2.8,3.6,5.7,4.7,9c0.7,2-0.2,3.7-2.7,4.8
		L196,121.2z M163.2,104.4c0-1.8,1.5-3.3,3.3-3.3c1.8,0,0.8,0.1,1.1,0.2c0.5,0.1,0.9,0.4,1.2,0.8c0.6,0.6,0.9,1.4,0.9,2.2
		c0,1.8-1.4,3.3-3.3,3.3S163.2,106.2,163.2,104.4L163.2,104.4z M152.6,172.4c-22-17.4-32.7-23.1-37.2-22.8c-4.1,0.2-3.4,5-2.5,8.1
		c0.9,3,2.2,5.1,3.9,7.8c1.2,1.8,2,4.4-1.2,6.4c-7.1,4.4-19.5-1.5-20-1.8c-14.4-8.5-26.4-19.7-34.8-34.9
		c-8.2-14.7-12.9-30.5-13.7-47.3c-0.2-4,1-5.5,5-6.2c5.4-1,10.9-1.2,16.2-0.4c22.5,3.3,41.7,13.4,57.8,29.3
		c9.2,9.1,16.1,19.9,23.3,30.5c7.6,11.3,15.8,22,26.2,30.8c3.7,3.1,6.6,5.4,9.4,7.2C176.4,179.9,162.3,180.1,152.6,172.4
		L152.6,172.4z M281.1,29.7c-2.7-1.3-3.8,1.2-5.4,2.5c-0.5,0.4-1,1-1.5,1.5c-3.9,4.2-8.5,6.9-14.5,6.6c-8.8-0.5-16.3,2.3-22.8,9
		c-1.4-8.3-6-13.2-13.2-16.4c-3.7-1.7-7.5-3.3-10.1-6.9c-1.8-2.5-2.3-5.4-3.2-8.2c-0.6-1.7-1.2-3.4-3.1-3.7
		c-2.1-0.3-2.9,1.4-3.7,2.9c-3.3,6-4.6,12.7-4.5,19.4c0.3,15.2,6.7,27.2,19.4,35.9c1.5,1,1.8,2,1.4,3.4c-0.9,3-1.9,5.8-2.8,8.8
		c-0.6,1.9-1.5,2.3-3.5,1.5c-7-2.9-13-7.3-18.3-12.5c-9.1-8.8-17.2-18.4-27.4-26c-2.4-1.8-4.8-3.4-7.3-5
		c-10.4-10.1,1.4-18.4,4.1-19.4c2.9-1,1-4.6-8.2-4.5c-9.2,0-17.6,3.1-28.4,7.3c-1.6,0.6-3.2,1.1-4.9,1.4c-9.7-1.8-19.9-2.2-30.5-1.1
		c-19.9,2.2-35.8,11.6-47.5,27.7C31.2,73.2,27.8,95.2,31.9,118c4.3,24.1,16.6,44.1,35.5,59.7c19.6,16.2,42.2,24.1,68,22.6
		c15.6-0.9,33.1-3,52.7-19.7c5,2.5,10.2,3.5,18.8,4.2c6.7,0.6,13-0.3,18-1.4c7.8-1.7,7.3-8.8,4.4-10.2c-22.8-10.6-17.8-6.3-22.3-9.8
		c11.5-13.7,29-27.9,35.8-74c0.5-3.6,0.1-5.9,0-8.9c0-1.8,0.4-2.5,2.4-2.7c5.7-0.7,11.2-2.2,16.3-5c14.7-8,20.7-21.3,22.1-37.1
		C283.9,33.4,283.8,30.9,281.1,29.7L281.1,29.7z"/>
</g>
</svg>
