<?xml version="1.0" encoding="utf-8"?>
<!-- Generator: Adobe Illustrator 27.9.6, SVG Export Plug-In . SVG Version: 9.03 Build 54986)  -->
<svg version="1.1" id="Layer_1" xmlns="http://www.w3.org/2000/svg" xmlns:xlink="http://www.w3.org/1999/xlink" x="0px" y="0px"
	 viewBox="0 0 480 491" style="enable-background:new 0 0 480 491;" xml:space="preserve">
<style type="text/css">
	.st0{fill:#FFFFFF;}
</style>
<g id="Layer_2_00000168812298110066094980000010982648032375515044_">
	<rect y="0" width="480" height="491"/>
</g>
<path class="st0" d="M466.2,253c-66.7,31.6-146.3,11.5-216.8,4c-5.5,4,10.3,13.3,13.1,16.2c18.5,19.4-26.1,54.2-29,110.1
	c-0.5,9.7-1.4,47.6,6.4,27.8c0.1-0.3,0.3-0.6,0.4-0.9c45.3-73.7,172.4-61.5,227.7-155.2C468.8,253.8,467.5,252.4,466.2,253z"/>
<path class="st0" d="M255,23.4c29.6,67.6,7.2,146.5-2.4,216.8c3.8,5.6,13.6-9.9,16.6-12.6c19.9-17.9,53.4,27.7,109.2,32.3
	c9.7,0.8,47.5,2.8,27.9-5.6c-0.3-0.1-0.6-0.3-0.9-0.5C333,206.3,349,79.6,257.1,21.6C255.9,20.8,254.4,22.1,255,23.4z"/>
<path class="st0" d="M386.8,239.4"/>
<path class="st0" d="M388,241.7c-0.2,0-0.4-0.1-0.6-0.2"/>
<path class="st0" d="M22.8,239.3c67.6-29.6,146.5-7.2,216.8,2.4c5.6-3.8-9.9-13.6-12.6-16.6c-17.9-19.9,27.7-53.4,32.3-109.2
	c0.8-9.7,2.8-47.5-5.6-27.9c-0.1,0.3-0.3,0.6-0.5,0.9C205.7,161.2,79,145.2,20.9,237.2C20.2,238.4,21.4,239.9,22.8,239.3z"/>
<path class="st0" d="M234.5,467.6c-30.5-67.2-9.1-146.4-0.4-216.8c-3.9-5.5-13.5,10.1-16.4,12.8c-19.7,18.2-53.8-27-109.6-30.8
	c-9.7-0.7-47.5-2.2-27.9,5.9c0.3,0.1,0.6,0.3,0.9,0.5c72.9,46.5,58.6,173.4,151.3,230.2C233.7,470.2,235.1,468.9,234.5,467.6z"/>
</svg>
