<?xml version="1.0" encoding="utf-8"?>
<!-- Generator: Adobe Illustrator 27.9.6, SVG Export Plug-In . SVG Version: 9.03 Build 54986)  -->
<svg version="1.1" xmlns="http://www.w3.org/2000/svg" xmlns:xlink="http://www.w3.org/1999/xlink" x="0px" y="0px"
	 viewBox="0 0 480 491" style="enable-background:new 0 0 480 491;" xml:space="preserve">
<style type="text/css">
	.st0{fill:#FFFFFF;}
</style>
<g id="Layer_2">
	<rect width="480" height="491"/>
</g>
<g id="Layer_1">
	<g>
		<path class="st0" d="M467.8,248.3h-1v0.3l-0.3,0.3h-0.7l-0.7,0.7h-0.7l-0.7,0.7H463l-0.7,0.7h-1.4l-0.7,0.7h-0.7l-1,0.7h-0.7
			l-0.7,0.7h-1l-0.7,0.7h-0.7l-1,0.7h-0.7l-0.3,0.3h-0.3l-0.3,0.3h-0.7l-1,0.7h-1l-0.7,0.7h-1l-1,0.7h-1.4l-0.7,0.7h-1.4l-0.7,0.7
			h-1.4l-0.3,0.3H440l-0.3,0.3H439l-1,0.7h-1.4l-1,0.7h-1.4l-1,0.7h-1.4l-1,0.7h-2.4l-1,0.7h-2.4l-0.7,0.7h-1.7l-1,0.7h-2.8
			l-0.7,0.7h-2.4l-0.3,0.3h-0.7l-0.3,0.3h-3.8l-1,0.7h-5.2l-0.7,0.7h-5.9l-0.3,0.3h-1.7l-0.3,0.3h-10.8l-0.3,0.3h-7.3l-0.3,0.3h-1
			l-0.3-0.3h-7.3l-0.3-0.3h-9.4l-0.3-0.3H356l-0.3-0.3h-8l-0.3-0.3h-0.7l-0.3-0.3H340l-0.3-0.3H338l-0.3-0.3h-5.6l-0.3-0.3H331
			l-0.3-0.3h-4.5l-0.3-0.3h-1.4l-0.3-0.3h-3.5l-0.3-0.3h-1.4l-0.3-0.3h-3.1l-0.3-0.3h-1.7l-0.3-0.3h-2.8l-0.3-0.3h-1l-0.3-0.3h-3.1
			l-0.3-0.3h-0.7l-0.3-0.3h-2.8l-1-0.7h-4.2l-0.3-0.3h-0.7l-0.3-0.3h-2.1l-0.3-0.3h-0.7l-0.3-0.3H288l-0.3-0.3h-0.7l-0.3-0.3h-2.1
			l-0.3-0.3h-0.7l-0.3-0.3H280l-0.3-0.3h-0.7l-0.3-0.3h-2.4l-1-0.7h-2.4l-0.3-0.3h-1.4l-0.3-0.3h-2.8l-0.3-0.3h-0.7l-0.3-0.3h-2.8
			l-0.3-0.3h-0.7l-0.3-0.3h-2.1l-1-0.7h-2.8l-1-0.7h-3.5l-1-0.7h-4.2l-0.7,0.7h-0.3l-0.7,0.7v0.7l-0.3,0.3v1l0.7,0.7l0.3,1l5.6,5.6
			h0.3l1.4,1.4h0.3l2.1,1.7h0.3l1.7,1.7h0.3l1.4,1.4h0.3l2.1,2.1h0.3l0.7,0.7h0.3l2.1,2.1h0.3l1.4,1.4h0.3l5.9,5.9v1.4l0.7,1v2.8
			l-0.7,0.7v0.7l-0.7,0.7v0.7l-2.1,2.1v0.3l-2.1,2.1v0.3l-2.8,2.8v0.3l-2.8,2.8v0.3l-1.4,1.4v0.3l-2.8,3.1v0.3l-0.7,0.7v0.3
			l-1.4,1.4v0.3l-0.7,0.7v0.3l-1,1l-0.3,1l-1.4,1.4v0.3l-0.7,0.7l-0.7,1.7l-2.1,2.8l-0.3,1l-1,1v0.7l-0.7,0.7v0.7l-0.7,0.7l-0.3,1
			l-0.7,0.7v0.7l-1,1.4v0.3l-0.3,0.3l-1,2.4l-0.7,0.7v0.7l-0.7,0.7v0.7l-1.7,3.1l-0.3,1.7l-0.7,1v0.7l-0.3,0.3v0.3l-0.3,0.3v0.7
			l-0.7,1v1l-0.7,0.7v1l-0.7,1v1l-0.7,1v1.4l-0.7,1v1l-0.3,0.3v0.7l-0.3,0.3v1.4l-0.3,0.3v0.7l-0.3,0.3v1.4l-0.7,1v1.7l-0.7,0.7v0.7
			l0.3,0.3v0.3l-0.3,0.3v1.4l-0.7,1v2.8l-0.3,0.3v0.7l-0.3,0.3v2.4l-0.3,0.3v0.7l-0.3,0.3v6.3l-0.3,0.3v2.8l-0.3,0.3v16l0.3,0.3v1.7
			l0.3,0.3v5.2l0.3,0.3v0.7l0.3,0.3v2.4l0.3,0.3v1.4l0.3,0.3v2.8l0.3,0.3v0.7l0.3,0.3v1h0.7l0.3-0.3v-2.4l0.7-0.7v-0.7l0.7-1v-0.7
			l0.7-1v-0.7l0.7-0.7v-0.7l0.7-0.7v-0.7l0.3-0.3l0.3-1l0.7-0.7v-0.7l0.7-0.7l0.3-1l0.7-0.7v-0.3l1-1.4l0.3-1l1-1v-0.3l1-1.4l0.3-1
			l2.1-2.1v-0.3l0.7-0.7V392l3.5-3.5v-0.3l2.8-2.8h0.3l0.3-0.3v-0.3l0.3-0.3h0.3l3.8-3.8h0.3l2.4-2.1h0.3l0.7-0.7h0.3l1.4-1.4h0.3
			l1.7-1.4l1-0.3l0.7-0.7l1-0.3l1-1l2.4-1l1-1l1-0.3l0.7-0.7l1-0.3l0.7-0.7h0.3l1.7-1h0.7l1.4-1h0.3l3.1-1.7h0.7l0.3-0.3l1-0.3
			l0.7-0.7h0.7l1-0.7h0.7l1-0.7h0.7l0.7-0.7h0.7l1-0.7h0.7l0.7-0.7h0.7l0.7-0.7h1l1-0.7h0.7l0.7-0.7h1.4l0.7-0.7h0.7l1-0.7h0.7
			l1-0.7h0.7l0.7-0.7h1l1-0.7h0.7l1-0.7h0.7l1-0.7h0.7l0.7-0.7h1l1-0.7h0.7l0.7-0.7h0.7l0.3-0.3l1.7-0.3l1-0.7h1l0.7-0.7h1l1-0.7h1
			l1-0.7h0.7l1-0.7h0.7l0.3-0.3h0.3l0.3-0.3h0.7l1-0.7h1l0.7-0.7h1l0.7-0.7h1l0.7-0.7h1l0.7-0.7h1l1-0.7h1l0.7-0.7h1l0.7-0.7h1
			l1-0.7h0.7l1-0.7h0.7l0.7-0.7h0.7l1-0.7h0.7l1-0.7h0.7l1-0.7h0.7l1-0.7h0.7l0.7-0.7h0.7l1-0.7h0.7l1-0.7h0.7l0.7-0.7h0.7l0.3-0.3
			h0.3l0.3-0.3h0.7l3.8-2.1h0.7l0.7-0.7h0.7l0.7-0.7h0.7l0.7-0.7h0.7l0.7-0.7h0.7l0.3-0.3l1-0.3l0.7-0.7h0.7l0.7-0.7h0.7l0.7-0.7
			h0.7l0.7-0.7h0.7l0.7-0.7h0.7l0.7-0.7h0.3l0.3-0.3h0.3l0.3-0.3l2.4-1l0.7-0.7l1-0.3l0.7-0.7h0.7l0.7-0.7l1.7-0.7l1.7-1.4h0.7
			l0.7-0.7h0.7l0.7-0.7h0.3l1.4-1l1-0.3l1-1l1-0.3l2.8-2.1h0.7l2.8-2.1h0.7l1.4-1.4h0.7l0.7-0.7h0.3l0.7-0.7h0.3l0.7-0.7h0.3
			l0.7-0.7h0.3l0.7-0.7h0.3l0.7-0.7h0.3l1.4-1.4l1-0.3l1-1h0.3l0.7-0.7h0.3l1.4-1.4h0.3l2.4-2.1h0.3l0.7-0.7h0.3l2.1-2.1h0.3
			l1.4-1.4h0.3l2.4-2.4h0.3l1-1h0.3l6.9-6.9h0.3l4.2-4.2V276l4.2-4.2v-0.3l2.1-2.1v-0.3l2.4-2.4v-0.3l1-1v-0.3l1.4-1.4v-0.3l0.7-0.7
			v-0.3l0.7-0.7v-0.3l0.7-0.7v-0.3l1.4-1.4l0.3-1l1-1v-0.7l0.3-0.3l0.3-1l1.4-1.7v-0.7l0.7-0.7v-1l0.3-0.3h0.3V248.3z"/>
		<path class="st0" d="M76.8,237.5l-0.3,0.3v0.7l0.3,0.3h1.4l0.7,0.7h1l0.3,0.3h0.3l0.3,0.3h0.7l1,0.7h1l0.7,0.7h0.7l0.7,0.7h0.7
			l1,0.7h0.7l1.4,1h0.7l0.3,0.3h0.3l0.7,0.7l1.7,0.7l1,1l1,0.3l0.7,0.7h0.3l0.7,0.7h0.3l1.4,1.4h0.7l1.4,1.4h0.3l0.7,0.7h0.3
			l2.1,2.1h0.3l0.7,0.7h0.3l3.5,3.5h0.3l2.4,2.4v0.3l4.5,4.5v0.3l1.4,1.4v0.3l2.8,3.1v0.3l0.7,0.7v0.3l0.7,0.7v0.3l1.4,1.4v0.3
			l0.7,0.7v0.3l0.7,0.7v0.3l0.7,0.7v0.3l2.1,2.8l0.3,1l1,1v0.7l0.7,0.7l0.3,1l0.7,0.7l0.3,1l0.7,0.7v0.7l0.7,0.7v0.7l0.7,0.7v0.7
			l1,1v0.3l1,1.7v0.7l0.7,0.7v0.7l0.7,1v0.7l0.7,0.7v0.7l0.7,0.7v0.7l0.7,0.7v0.3l0.7,1v0.7l0.7,0.7v0.7l1.4,2.4v0.7l0.7,1v0.7
			l0.7,0.7v1l0.7,1v0.7l0.7,1v0.7l0.7,1v0.7l0.7,0.7v0.7l0.7,1v1l0.7,0.7v1l1.4,2.4v1l0.7,1v0.7l0.7,1v0.7l0.3,0.3v0.3l0.3,0.3v0.7
			l0.7,1v1l0.7,1v1l0.7,0.7v0.7l0.3,0.3v0.3l0.3,0.3v0.7l0.7,1v1l0.7,1v0.7l0.3,0.3l0.3,1.7l0.7,0.7v1l0.7,1v0.7l0.7,1v0.7l0.3,0.3
			v0.3l0.3,0.3v0.7l0.7,1v1l0.7,1v0.7l0.3,0.3v0.3l0.3,0.3v0.7l0.7,1v1l0.7,0.7v0.7l0.7,1v0.7l0.7,1v0.7l0.7,1v0.7l0.7,1v0.7l0.7,1
			v0.7l0.7,1v0.7l0.3,0.3v0.3l0.7,1v0.7l1,1.7v0.7l0.7,0.7v0.7l0.7,1v0.7l1.4,2.4v0.7l0.7,0.7v0.7l1,1.7l0.3,1.7l0.7,0.7v0.3l0.7,1
			v0.7l0.7,0.7v0.3l0.7,1v0.7l0.7,0.7v0.3l2.1,3.8v0.7l0.7,0.7v0.3l0.7,1v0.7l1.4,1.7v0.7l1.4,1.7v0.7l0.7,0.7l0.3,1l0.7,0.7l0.3,1
			l0.7,0.7v0.3l0.3,0.3l0.7,1.7l0.7,0.7l0.3,1l2.1,2.8l0.3,1l1,1v0.7l1,1l0.3,1l0.7,0.7v0.3l0.7,0.7v0.3l0.7,0.7v0.3l0.7,0.7v0.3
			l0.7,0.7v0.3l0.7,0.7v0.3l0.7,0.7v0.3l0.7,0.7v0.3l0.7,0.7v0.3l0.7,0.7v0.3l1.4,1.4v0.3l1,1v0.3l1.7,1.7v0.3l0.7,0.7v0.3l1.4,1.4
			v0.3l0.7,0.7v0.3l2.1,2.1v0.3l1.4,1.4v0.3l2.1,2.1v0.3l1.4,1.4v0.3l4.2,4.2v0.3l3.5,3.5v0.3l2.1,2.1h0.3l1.7,1.7h0.3l0.3,0.3v0.3
			l2.1,2.1h0.3l2.8,2.8h0.7l2.8,2.8h0.3l2.1,1.7l1,0.3l0.7,0.7h0.3l2.8,2.1h0.7l0.7,0.7h1l0.3,0.3v0.3h1.7v-1h-0.3l-0.3-0.3V474
			l-0.3-0.3l-0.3-1l-0.7-0.7l-0.7-1.7l-2.1-2.8v-0.7l-0.7-0.7l-0.7-1.7l-0.7-0.7v-0.3l-1.7-3.1v-0.7l-1.7-3.1v-0.7l-0.7-0.7v-0.7
			l-0.7-1v-0.7l-1.4-2.4v-0.7l-0.7-1v-0.7l-0.7-1v-0.7l-0.3-0.3v-0.3l-0.3-0.3v-0.7l-0.7-1v-1.4l-0.7-0.7v-0.7l-0.7-1v-1l-0.3-0.3
			v-0.3l-0.3-0.3v-0.7l-0.7-1V434l-0.7-0.7v-1.4l-0.7-1v-1.7l-0.7-0.7v-2.1l-0.7-0.7v-1.4l-0.7-1v-1.4l-0.3-0.3v-1l-0.3-0.3v-1
			l-0.3-0.3v-1l-0.3-0.3v-2.8l-0.3-0.3v-0.7l-0.3-0.3v-2.4l-0.3-0.3v-1l-0.3-0.3v-4.2l-0.7-1v-3.5l-0.3-0.3v-1l-0.3-0.3v-3.8
			l-0.3-0.3v-2.8l-0.3-0.3v-4.2l-0.3-0.3v-5.6l-0.3-0.3v-15.6l0.3-0.3v-3.5l0.3-0.3v-5.6l-0.3-0.3l0.3-0.3v-4.2l0.3-0.3V349l0.3-0.3
			v-5.9l0.3-0.3v-1.7l0.3-0.3v-3.8l0.3-0.3v-0.7l0.3-0.3v-4.5l0.7-1v-4.2l0.7-1v-3.1l0.3-0.3v-0.7l0.3-0.3v-3.5l0.3-0.3v-1l0.3-0.3
			v-2.1l0.3-0.3v-1.4l0.3-0.3v-1.7l0.3-0.3v-0.7l0.3-0.3v-3.1l0.3-0.3v-1l0.3-0.3V301l0.3-0.3v-1.7l0.3-0.3v-2.1l0.7-1V293l0.3-0.3
			v-1l0.3-0.3v-2.4l0.3-0.3v-0.7l0.3-0.3v-1.7l0.3-0.3V284l0.3-0.3v-1.7l0.7-1v-3.1l0.3-0.3v-1l0.3-0.3v-1.7l0.3-0.3v-1l0.3-0.3
			v-2.4l0.3-0.3v-0.7l0.3-0.3v-2.4l0.3-0.3v-1l0.3-0.3v-2.8l0.7-1v-2.4l0.3-0.3v-0.7l0.3-0.3v-2.8l-0.7-0.7v-0.7l-0.3-0.3h-4.5
			l-0.7,0.7h-0.7l-1.4,1.4h-0.3l-0.7,0.7h-0.3l-0.3,0.3v0.3l-5.6,5.6v0.3l-8,8h-0.3l-2.1,2.1h-0.3l-1.7,1.4h-0.7l-1,0.7h-4.2l-1-0.7
			h-0.7l-1.7-1.7h-0.3l-1-1h-0.3l-1.4-1.4l-1-0.3l-1-1h-0.3l-0.7-0.7h-0.3l-1-1l-1-0.3l-1.4-1.4h-0.3l-0.7-0.7h-0.3l-1.4-1.4h-0.7
			l-1.4-1.4h-0.3l-1.7-1.4l-1-0.3l-1-1h-0.7l-1-1l-1-0.3l-0.7-0.7h-0.3l-0.7-0.7l-1.7-0.7l-0.7-0.7h-0.7l-2.8-2.1h-0.7l-0.7-0.7
			h-0.7l-0.7-0.7H164l-0.7-0.7h-0.7l-0.7-0.7l-1.7-0.3l-0.3-0.3h-0.3l-0.3-0.3l-2.4-1l-0.7-0.7h-1l-1-0.7h-1l-0.7-0.7h-0.7l-0.7-0.7
			h-1.4l-0.3-0.3h-0.3l-0.3-0.3h-0.7l-1-0.7h-1.4l-1-0.7h-1l-0.3-0.3h-0.7l-0.3-0.3h-1l-1-0.7h-1.4l-0.3-0.3h-0.7l-0.3-0.3h-1.4
			l-1-0.7h-2.1l-0.7-0.7h-2.4l-0.3-0.3h-1.4l-0.3-0.3h-2.8l-0.3-0.3h-1l-0.3-0.3h-2.8l-0.7-0.7h-5.9l-0.3-0.3h-1l-0.3-0.3H89.7
			l-0.3,0.3h-0.7l-0.3,0.3h-6.9l-0.7,0.7h-2.8l-0.3,0.3H76.8z"/>
		<path class="st0" d="M263.7,84.4H263l-0.3,0.3v0.7l-0.7,0.7v0.7l-0.7,0.7v0.7l-0.7,0.7v0.3l-0.3,0.3v0.3l-0.3,0.3v0.3l-0.3,0.3
			l-1,2.4l-0.7,0.7l-0.7,1.7l-0.7,0.7v0.7l-0.7,0.7v0.7l-0.7,0.7l-0.3,1l-1,1l-0.3,1l-1,1v0.3l-0.7,0.7v0.3l-2.8,2.8v0.3l-1.4,1.4
			v0.3L247,110h-0.3v0.3l-2.4,2.4h-0.3v0.3l-0.3,0.3h-0.3l-1.7,1.7h-0.3l-1.7,1.7H239l-0.7,0.7H238l-1.4,1.4h-0.7l-1.4,1.4l-1,0.3
			l-0.7,0.7l-1,0.3l-0.7,0.7h-0.7l-0.7,0.7l-1,0.3l-0.7,0.7l-1,0.3l-0.7,0.7h-0.7l-0.7,0.7h-0.7l-1,0.7h-0.7l-0.7,0.7h-1l-0.7,0.7
			h-0.3l-1,0.7h-0.7l-0.7,0.7h-0.7l-1,0.7h-0.7l-0.7,0.7h-1l-0.7,0.7h-0.7l-1,0.7h-1l-0.7,0.7h-0.7l-1.7,1l-1.7,0.3l-1,0.7h-1
			l-1,0.7h-1l-0.7,0.7h-1l-1,0.7h-1l-0.7,0.7h-1.4l-0.7,0.7h-1l-1,0.7h-1l-1,0.7h-1l-0.7,0.7h-1l-1,0.7h-1.4l-0.7,0.7h-0.7l-1,0.7
			h-1.4l-0.7,0.7h-1l-1,0.7h-1.4l-0.7,0.7h-1l-1,0.7h-1l-1,0.7h-1l-0.7,0.7h-1.4l-1,0.7h-1l-1,0.7H164l-0.7,0.7h-1l-0.7,0.7h-1.4
			l-0.7,0.7h-1.4l-0.7,0.7H156l-0.7,0.7h-1l-1,0.7h-0.7l-1,0.7h-1l-0.7,0.7h-1l-1,0.7H147l-1,0.7h-0.7l-0.3,0.3h-0.3l-0.3,0.3h-0.7
			l-1,0.7h-1l-0.7,0.7H140l-1,0.7h-0.7l-1,0.7h-0.7l-0.7,0.7h-1l-0.3,0.3h-0.3l-0.3,0.3h-0.7l-1,0.7h-1l-0.7,0.7h-0.7l-1,0.7h-0.7
			l-2.4,1.4h-0.7l-0.7,0.7h-0.7l-1,0.7h-0.7l-1,0.7h-0.7l-0.7,0.7h-0.7l-0.7,0.7h-0.7l-1.7,1h-0.7l-0.3,0.3H114l-0.7,0.7h-0.7
			l-1,0.7h-0.7l-0.7,0.7h-0.7l-0.7,0.7h-0.7l-0.7,0.7h-0.7l-0.7,0.7h-0.7l-0.7,0.7h-0.7l-0.7,0.7h-0.7l-0.7,0.7h-0.7l-0.7,0.7h-0.3
			l-1,0.7h-0.7l-0.7,0.7H97l-0.7,0.7l-1,0.3l-0.7,0.7l-1,0.3l-0.7,0.7l-1.7,0.7l-0.7,0.7h-0.7l-0.3,0.3H89l-0.7,0.7l-1,0.3l-0.7,0.7
			h-0.7l-2.8,2.1h-0.7l-2.8,2.1l-1,0.3l-1,1h-0.7l-0.7,0.7h-0.3l-0.7,0.7h-0.3l-0.7,0.7h-0.3l-0.7,0.7h-0.3L72,192h-0.3l-0.7,0.7
			h-0.3l-0.7,0.7h-0.3l-0.7,0.7h-0.3l-0.7,0.7h-0.3l-0.7,0.7h-0.3l-1.4,1.4h-0.3l-0.7,0.7h-0.3l-0.7,0.7h-0.3l-0.7,0.7h-0.3
			l-1.4,1.4h-0.3l-0.7,0.7h-0.3l-1.4,1.4l-1,0.3l-1.7,1.7h-0.3l-1.4,1.4h-0.3l-2.1,2.1h-0.3l-0.7,0.7h-0.3l-2.8,2.8h-0.3v0.3
			l-0.3,0.3h-0.3l-1.4,1.4h-0.3l-4.9,4.9h-0.3v0.3l-0.3,0.3h-0.3v0.3l-0.3,0.3h-0.3l-0.7,0.7v0.3l-0.3,0.3h-0.3l-1.4,1.4v0.3l-1,1
			h-0.3v0.3l-0.3,0.3H32v0.3l-5.6,5.6v0.3l-1.4,1.4v0.3l-0.3,0.3h-0.3v0.3l-2.1,2.1v0.3l-1,1v0.3l-1.7,1.7v0.3l-0.7,0.7v0.3
			l-2.1,2.4v0.3l-0.7,0.7v0.3l-0.7,0.7v0.3l-2.1,2.8v0.7l-0.7,0.7v0.3l-0.7,0.7v0.7l-0.7,0.7v2.4h3.1l0.7-0.7h0.7l0.7-0.7l1.7-0.7
			l0.7-0.7h0.7l0.7-0.7h0.3l0.7-0.7l1.7-0.7l0.7-0.7h0.7l0.7-0.7h0.7l0.7-0.7h0.3l1-0.7h0.7l0.7-0.7h0.3l2.4-1.4h0.7l0.7-0.7h0.7
			l0.7-0.7h0.7l0.7-0.7h0.7l0.7-0.7h0.7l1-0.7H40l1-0.7h0.7l0.7-0.7h1l1-0.7h0.7l0.7-0.7h1l1-0.7h0.7l0.3-0.3h0.3l0.3-0.3h0.7l1-0.7
			h1l1-0.7H55l0.7-0.7h1l1-0.7h1.4l0.7-0.7h1.4l1-0.7H64l0.7-0.7h1.4l1-0.7h1.4l0.3-0.3h0.7l0.3-0.3h1.7l1-0.7h2.4l1-0.7h1.7
			l0.3-0.3h0.7l0.3-0.3h2.4l0.3-0.3h0.7l0.3-0.3h3.8l1-0.7h2.8l0.3-0.3h1.4l0.3-0.3h6.6l0.3-0.3h0.7l0.3-0.3h17l0.3-0.3l0.3,0.3
			h11.8l0.3,0.3h1.4l0.3,0.3h5.2l0.3,0.3h1.7l0.3,0.3h4.5l1,0.7h5.6l0.3,0.3h0.7l0.3,0.3h3.8l0.3,0.3h1.4l0.3,0.3h2.4l0.3,0.3h1.7
			l0.3,0.3h2.4l0.3,0.3h0.7l0.3,0.3h2.4l0.3,0.3h1l0.3,0.3h2.1l0.3,0.3h1l0.3,0.3h1.7l0.3,0.3h0.7l0.3,0.3h2.1l1,0.7h2.8l0.3,0.3h1
			l0.3,0.3h2.8l0.3,0.3h1.4l0.3,0.3h1.7l0.3,0.3h0.7l0.3,0.3h2.8l0.3,0.3h0.7l0.3,0.3h2.1l0.3,0.3h1l0.3,0.3h1.7l0.3,0.3h1l0.3,0.3
			h2.1l1,0.7h2.8l0.3,0.3h1.4l0.3,0.3h1.7l0.3,0.3h1l0.3,0.3h2.4l0.3,0.3h1l0.3,0.3h2.4l0.3,0.3h0.7l0.3,0.3h3.5l1,0.7h4.9l1-1.4
			v-1.4l-0.3-0.3l-0.7-1.7l-1.7-1.7v-0.3l-3.5-3.1h-0.3l-2.1-2.1h-0.3l-0.7-0.7h-0.3l-2.1-2.1h-0.3L222,226h-0.3l-1.7-1.7h-0.3l-1-1
			h-0.3l-5.6-5.6h-0.3l-2.1-2.1h-0.3l-3.1-3.1v-0.3l-0.7-0.7v-0.7l-0.7-0.7v-1l-0.7-1v-0.7l0.3-0.3l0.3-1.7l0.3-0.3l0.3-1l0.7-0.7
			v-0.3l2.4-2.4h0.3V200l2.8-2.8v-0.3l0.3-0.3h0.3l1.4-1.4v-0.3l0.3-0.3h0.3v-0.3l5.6-5.6v-0.3l4.9-5.2v-0.3l0.7-0.7v-0.3l2.1-2.1
			v-0.3l1.4-1.4v-0.3l1.7-2.1V175l1.7-1.7v-0.3l2.8-3.1v-0.3l0.7-0.7v-0.3l0.7-0.7v-0.3l0.7-0.7v-0.3l0.7-0.7v-0.3l0.7-0.7v-0.3
			l1.4-1.4v-0.7l0.7-0.7l0.3-1l1-1V159l0.3-0.3l0.3-1l0.7-0.7v-0.3l0.3-0.3l1-2.4l0.7-0.7v-0.7l0.7-0.7V151l0.7-0.7V150l1.4-2.4
			v-0.7l0.7-0.7v-0.7l0.7-0.7v-0.7l0.7-1v-0.7l0.7-1v-0.7l0.7-0.7v-0.7l0.3-0.3v-0.3l0.3-0.3v-0.7l0.7-1v-1l0.3-0.3v-0.3l0.3-0.3
			v-0.7l0.7-1v-1l0.7-0.7v-1.7l0.7-1v-0.7l0.3-0.3v-0.7l0.3-0.3v-1l0.7-1v-1.4l0.3-0.3v-0.7l0.3-0.3v-1.4l0.7-0.7v-1.7l0.3-0.3v-0.7
			l0.3-0.3v-2.1l0.3-0.3v-0.7l0.3-0.3v-2.1l0.3-0.3v-1l0.3-0.3v-2.4l0.3-0.3v-1l0.3-0.3v-2.4l0.3-0.3V101l0.3-0.3v-5.6l0.3-0.3v-0.7
			l0.3-0.3V84.4z"/>
		<path class="st0" d="M252.2,21.9v1.4l0.7,0.7v0.7l1.4,1.7v0.7l0.7,0.7v0.7l0.7,0.7v0.7l1.4,1.7v0.7l1.4,1.7v0.3l0.3,0.3v0.7
			l0.3,0.3v0.7l0.7,0.7v0.7l0.7,1v0.7l0.7,0.7v1l0.7,0.7v1l0.7,0.7v1l0.3,0.3v0.3l0.3,0.3v0.7l0.7,1v1l0.7,1v1l0.7,1v1.4l0.7,1v1
			l0.7,1v2.1l0.7,0.7v1.4l0.7,1v1.4l0.7,1v1.7l0.3,0.3v1l0.3,0.3v1.7l0.3,0.3v1l0.3,0.3v2.4l0.3,0.3v0.7l0.3,0.3v2.1l0.3,0.3v1.7
			l0.3,0.3v3.1l0.3,0.3v2.1l0.3,0.3v4.2l0.3,0.3v1.7l0.3,0.3v5.9l0.3,0.3v2.1l-0.3,0.3v0.7l0.3,0.3v2.8l-0.3,0.3v11.1l-0.3,0.3v2.1
			l-0.3,0.3v5.9l-0.3,0.3v0.7l-0.3,0.3v4.2l-0.3,0.3v1.7l-0.3,0.3v3.1l-0.3,0.3v1.4l-0.3,0.3v2.1l-0.7,0.7v2.4l-0.7,1v2.4l-0.7,1
			v2.1l-0.3,0.3v1l-0.3,0.3v1.7l-0.3,0.3v0.7l-0.3,0.3v1.7l-0.7,1v1.7l-0.3,0.3v0.7l-0.3,0.3v1.4l-0.7,1v1.7l-0.7,1v1.4l-0.7,0.7
			v1.7l-0.7,1v1.7l-0.3,0.3v0.7l-0.3,0.3v1l-0.3,0.3v1l-0.3,0.3v0.7l-0.3,0.3v1l-0.3,0.3v1l-0.7,1v1l-0.7,1v1.4l-0.7,1v1l-0.3,0.3
			v0.7l-0.3,0.3v1.4l-0.7,0.7v1.4l-0.3,0.3v1l-0.3,0.3v0.7l-0.7,1v1.4l-0.7,0.7v2.1l-0.7,1v1.4l-0.7,1v1.4l-0.3,0.3v0.7l-0.3,0.3
			v1.7l-0.7,0.7v2.1l-0.3,0.3v0.7l-0.3,0.3v1.4l-0.3,0.3v0.7l-0.3,0.3v1.4l-0.3,0.3v1l-0.3,0.3v1.4l-0.3,0.3v1l-0.3,0.3v1.7
			l-0.3,0.3v1.4l-0.3,0.3v1.4l-0.3,0.3v1l-0.3,0.3v1l-0.3,0.3v0.7l-0.3,0.3v2.4l-0.7,1v3.8l-0.7,1v1.7l0.3,0.3v0.3l1,1h0.3l0.3,0.3
			v0.3h1l1-0.7h0.7l5.2-5.2v-0.3l3.8-4.2v-0.3l1.4-1.4v-0.3l1.4-1.4v-0.3l1.7-1.7v-0.3l3.5-3.5v-0.3l1.7-1.7h0.3l3.1-3.1h0.7
			l0.3-0.3h0.7l0.3-0.3h3.1l0.3,0.3l1.7,0.3l0.7,0.7h0.7l1.4,1.4h0.3l2.1,2.1h0.3l3.5,3.5h0.3l1.7,1.7h0.3l2.8,2.8l1,0.3l1.4,1.4
			h0.3l0.7,0.7h0.3l1.4,1.4h0.3l0.7,0.7h0.3l1.4,1.4h0.3l0.7,0.7h0.3l1,1l1,0.3l2.8,2.1h0.7l0.7,0.7l1,0.3l1,1h0.7l0.7,0.7h0.3
			l0.3,0.3h0.3l0.3,0.3h0.3l0.3,0.3l2.4,1l0.7,0.7h1l0.7,0.7h0.7l2.4,1.4h0.7l1,0.7h0.7l0.7,0.7h0.7l0.7,0.7h1l1,0.7h0.7l0.7,0.7
			h1.7l0.3,0.3h0.3l0.3,0.3h0.7l1,0.7h1l0.7,0.7h1.4l0.7,0.7h1.4l0.7,0.7h1.4l0.7,0.7h2.1l0.3,0.3h0.7l0.3,0.3h1l1,0.7h2.4l1,0.7
			h2.4l0.3,0.3h1.7l0.3,0.3h1.7l0.3,0.3h1l0.3,0.3h2.1l0.3,0.3h0.7l0.3,0.3h4.2l0.3,0.3h4.5l0.3,0.3h5.6l0.3,0.3h2.4l0.3,0.3h2.4
			l0.3-0.3h2.8l0.3,0.3h1.4l0.3-0.3h3.1l0.3,0.3h2.1l0.3-0.3h5.6l0.3-0.3h6.3l0.3-0.3h0.7l0.3-0.3h4.5l0.7-0.7h1v-0.7h-0.3l-0.3-0.3
			H414l-1-0.7h-2.1l-1-0.7h-0.7l-1-0.7h-0.7l-0.7-0.7H406l-1-0.7h-0.7l-0.7-0.7h-0.7l-0.7-0.7h-0.7l-0.7-0.7h-0.7l-0.7-0.7l-1-0.3
			l-0.7-0.7l-1-0.3l-0.7-0.7h-0.7l-0.7-0.7h-0.3l-1.4-1l-1-0.3l-1-1l-1-0.3l-1-1h-0.3l-0.7-0.7h-0.3l-2.8-2.4h-0.3l-1.4-1.4h-0.3
			l-0.7-0.7h-0.3l-0.3-0.3v-0.3h-0.3l-3.5-3.5h-0.3l-1.4-1.4h-0.3l-0.3-0.3v-0.3h-0.3l-0.3-0.3v-0.3l-3.1-3.1v-0.3l-3.8-3.8v-0.3
			l-1-1v-0.3l-2.4-2.4v-0.3l-0.7-0.7v-0.3l-1.4-1.4v-0.7l-1.4-1.4l-0.3-1l-1-1l-0.3-1l-0.7-0.7l-0.3-1l-0.7-0.7V209l-1-1l-0.3-1
			l-1.4-1.7v-0.3l-0.3-0.3l-1-2.4l-0.7-0.7v-0.7l-0.7-0.7v-0.7l-0.7-0.7v-0.3l-0.3-0.3v-0.3l-0.3-0.3l-1-2.4l-0.7-0.7v-0.3l-0.3-0.3
			v-0.7l-0.7-1V191l-0.7-0.7v-0.3l-0.7-1v-0.7l-1.4-2.4v-0.7l-0.3-0.3v-0.3l-0.3-0.3v-0.7l-0.7-1v-1l-0.7-0.7v-0.7l-1.4-2.4v-0.7
			l-0.7-1V175l-0.3-0.3l-0.3-1.7l-0.3-0.3v-0.3l-0.3-0.3v-0.7l-0.7-1v-0.7l-0.3-0.3l-0.3-1.7l-1-1.7v-0.7l-0.3-0.3v-1l-0.7-1v-0.7
			l-0.3-0.3l-0.3-1.7l-0.7-1v-1l-0.3-0.3l-0.3-1.7l-0.7-0.7v-1.4l-0.3-0.3v-0.3l-0.3-0.3v-0.7l-0.7-1V150l-0.3-0.3v-0.7l-0.3-0.3
			v-0.7l-0.3-0.3v-0.7l-0.3-0.3v-0.7l-0.3-0.3v-0.7l-0.3-0.3v-0.7l-0.3-0.3v-0.7l-0.3-0.3v-0.7l-0.3-0.3l-0.3-1.7l-0.7-1v-1.4
			l-0.7-1v-0.7l-0.3-0.3l-0.3-1.7l-0.7-1v-1.4l-0.7-1v-0.7l-0.3-0.3v-0.7l-0.3-0.3v-0.7l-0.3-0.3l-0.3-1.7l-0.7-1v-0.7l-0.3-0.3
			v-0.7l-0.3-0.3v-1l-0.3-0.3v-0.3l-0.3-0.3v-0.7l-0.7-1v-1l-0.7-1v-0.7l-0.7-1v-0.7l-0.3-0.3v-0.3l-0.3-0.3v-0.7l-0.7-1v-1l-0.7-1
			V108l-0.7-1v-0.7l-0.7-1v-0.7l-0.7-1v-0.7l-0.7-0.7v-0.7l-0.7-1v-0.7l-0.7-1v-0.7l-0.7-0.7v-0.7l-0.7-1v-0.7l-0.7-0.7v-0.7l-0.7-1
			v-0.7l-0.7-0.7v-0.7l-1.4-2.4v-0.7l-0.3-0.3v-0.3l-0.3-0.3l-1-2.4L305,83l-1-2.4l-0.7-0.7v-0.3l-1-1.4l-1-2.4l-0.7-0.7l-0.3-1
			l-0.7-0.7l-1-2.4l-0.7-0.7l-0.3-1l-0.7-0.7l-0.3-1l-0.7-0.7V66l-1.4-1.4v-0.7l-1.4-1.4v-0.3l-0.7-0.7v-0.3l-0.7-0.7V60l-0.7-0.7
			V59l-0.7-0.7V58l-0.7-0.7v-0.3l-0.7-0.7v-0.3l-0.7-0.7v-0.3l-1.4-1.4v-0.3l-0.7-0.7v-0.3l-1.4-1.4v-0.3l-0.7-0.7v-0.3l-1.4-1.4
			v-0.3l-2.8-3.1v-0.3l-1-1v-0.3l-3.8-3.8v-0.3h-0.3l-0.3-0.3v-0.3l-2.8-2.8h-0.3l-0.3-0.3v-0.3l-1.4-1.4h-0.3l-3.5-3.5H265
			l-0.7-0.7H264l-0.3-0.3v-0.3h-0.3l-1.4-1.4h-0.3l-0.7-0.7h-0.3l-0.7-0.7h-0.3l-2.8-2.1h-0.3l-1-0.7h-0.7l-1-0.7H252.2z"/>
	</g>
</g>
</svg>
