<?xml version="1.0" encoding="utf-8"?>
<!-- Generator: Adobe Illustrator 27.9.6, SVG Export Plug-In . SVG Version: 9.03 Build 54986)  -->
<svg version="1.1" id="Layer_1" xmlns="http://www.w3.org/2000/svg" xmlns:xlink="http://www.w3.org/1999/xlink" x="0px" y="0px"
	 viewBox="0 0 1504.9 476.5" style="enable-background:new 0 0 1504.9 476.5;" xml:space="preserve">
<style type="text/css">
	.st0{fill:#FFFFFF;}
	.st1{fill:none;}
</style>
<g>
	<path class="st0" d="M469.5,238.5h-1v0.3l-0.3,0.3h-0.7l-0.7,0.7H466l-0.7,0.7h-0.7l-0.7,0.7h-1.4l-0.7,0.7h-0.7l-1,0.7h-0.7
		l-0.7,0.7h-1L457,244h-0.7l-1,0.7h-0.7l-0.3,0.3H454l-0.3,0.3H453l-1,0.7h-1l-0.7,0.7h-1l-1,0.7h-1.4l-0.7,0.7h-1.4l-0.7,0.7h-1.4
		l-0.3,0.3h-0.3l-0.3,0.3h-0.7l-1,0.7h-1.4l-1,0.7h-1.4l-1,0.7h-1.4l-1,0.7h-2.4l-1,0.7h-2.4l-0.7,0.7H424l-1,0.7h-2.8l-0.7,0.7
		h-2.4l-0.3,0.3H416l-0.3,0.3h-3.8l-1,0.7h-5.2L405,257h-6l-0.3,0.3H397l-0.3,0.3h-10.8l-0.3,0.3h-7.3l-0.3,0.3h-1l-0.3-0.3h-7.3
		l-0.3-0.3h-9.4l-0.3-0.3H358l-0.3-0.3h-8l-0.3-0.3h-0.7l-0.3-0.3h-6.3l-0.3-0.3h-1.7l-0.3-0.3h-5.6l-0.3-0.3h-0.7l-0.3-0.3h-4.5
		l-0.3-0.3h-1.4l-0.3-0.3h-3.5l-0.3-0.3h-1.4l-0.3-0.3h-3.1l-0.3-0.3H315l-0.3-0.3h-2.8l-0.3-0.3h-1l-0.3-0.3H307l-0.3-0.3H306
		l-0.3-0.3h-2.8l-1-0.7h-4.2l-0.3-0.3h-0.7l-0.3-0.3h-2.1l-0.3-0.3h-0.7l-0.3-0.3h-3.1l-0.3-0.3h-0.7l-0.3-0.3h-2.1l-0.3-0.3h-0.7
		l-0.3-0.3h-3.1l-0.3-0.3h-0.7l-0.3-0.3h-2.4l-1-0.7H275l-0.3-0.3h-1.4l-0.3-0.3h-2.8l-0.3-0.3h-0.7l-0.3-0.3h-2.8l-0.3-0.3h-0.7
		l-0.3-0.3h-2.1l-1-0.7h-2.8l-1-0.7h-3.5l-1-0.7h-4.2l-0.7,0.7h-0.3l-0.7,0.7v0.7l-0.3,0.3v1l0.7,0.7l0.3,1l5.6,5.6h0.3l1.4,1.4h0.3
		l2.1,1.7h0.3l1.7,1.7h0.3l1.4,1.4h0.3l2.1,2.1h0.3l0.7,0.7h0.3l2.1,2.1h0.3l1.4,1.4h0.3l5.9,5.9v1.4l0.7,1v2.8l-0.7,0.7v0.7
		l-0.7,0.7v0.7l-2.1,2.1v0.3l-2.1,2.1v0.3l-2.8,2.8v0.3l-2.8,2.8v0.3l-1.4,1.4v0.3l-2.8,3.1v0.3l-0.7,0.7v0.3l-1.4,1.4v0.3l-0.7,0.7
		v0.3l-1,1l-0.3,1l-1.4,1.4v0.3l-0.7,0.7l-0.7,1.7l-2.1,2.8l-0.3,1l-1,1v0.7l-0.7,0.7v0.7l-0.7,0.7l-0.3,1l-0.7,0.7v0.7l-1,1.4v0.3
		l-0.3,0.3l-1,2.4l-0.7,0.7v0.7l-0.7,0.7v0.7l-1.7,3.1l-0.3,1.7l-0.7,1v0.7l-0.3,0.3v0.3l-0.3,0.3v0.7l-0.7,1v1l-0.7,0.7v1l-0.7,1v1
		l-0.7,1v1.4l-0.7,1v1l-0.3,0.3v0.7l-0.3,0.3v1.4l-0.3,0.3v0.7l-0.3,0.3v1.4l-0.7,1v1.7l-0.7,0.7v0.7l0.3,0.3v0.3l-0.3,0.3v1.4
		l-0.7,1v2.8l-0.3,0.3v0.7l-0.3,0.3v2.4l-0.3,0.3v0.7l-0.3,0.3v6.3l-0.3,0.3v2.8l-0.3,0.3v16l0.3,0.3v1.7l0.3,0.3v5.2l0.3,0.3v0.7
		l0.3,0.3v2.4l0.3,0.3v1.4l0.3,0.3v2.8l0.3,0.3v0.7l0.3,0.3v1h0.7l0.3-0.3v-2.4l0.7-0.7v-0.7l0.7-1v0.2l0.7-1v-0.7l0.7-0.7v-0.7
		l0.7-0.7v-0.7l0.3-0.3l0.3-1l0.7-0.7v-0.7l0.7-0.7l0.3-1l0.7-0.7v-0.3l1-1.4l0.3-1l1-1v-0.3l1-1.4l0.3-1l2.1-2.1v-0.3l0.7-0.7v-0.3
		l3.5-3.5v-0.3l2.8-2.8h0.3l0.3-0.3v-0.3l0.3-0.3h0.3l3.8-3.8h0.3l2.4-2.1h0.3l0.7-0.7h0.3l1.4-1.4h0.3l1.7-1.4l1-0.3l0.7-0.7l1-0.3
		l1-1l2.4-1l1-1l1-0.3l0.7-0.7l1-0.3l0.7-0.7h0.3l1.7-1h0.7l1.4-1h0.3l3.1-1.7h0.7l0.3-0.3l1-0.3l0.7-0.7h0.7l1-0.7h0.7l1-0.7h0.7
		l0.7-0.7h0.7l1-0.7h0.7l0.7-0.7h0.7l0.7-0.7h1l1-0.7h0.7l0.7-0.7h1.4l0.7-0.7h0.7l1-0.7h0.7l1-0.7h0.7l0.7-0.7h1l1-0.7h0.7l1-0.7
		h0.7l1-0.7h0.7l0.7-0.7h1l1-0.7h0.7l0.7-0.7h0.7l0.3-0.3l1.7-0.3l1-0.7h1l0.7-0.7h1l1-0.7h1l1-0.7h0.7l1-0.7h0.7l0.3-0.3h0.3
		l0.3-0.3h0.7l1-0.7h1l0.7-0.7h1l0.7-0.7h1l0.7-0.7h1l0.7-0.7h1l1-0.7h1l0.7-0.7h1l0.7-0.7h1l1-0.7h0.7l1-0.7h0.7l0.7-0.7h0.7l1-0.7
		h0.7l1-0.7h0.7l1-0.7h0.7l1-0.7h0.7l0.7-0.7h0.7l1-0.7h0.7l1-0.7h0.7l0.7-0.7h0.7l0.3-0.3h0.3l0.3-0.3h0.7l3.8-2.1h0.7l0.7-0.7h0.7
		l0.7-0.7h0.7l0.7-0.7h0.7l0.7-0.7h0.7l0.3-0.3l1-0.3l0.7-0.7h0.7l0.7-0.7h0.7l0.7-0.7h0.7l0.7-0.7h0.7l0.7-0.7h0.7l0.7-0.7h0.3
		l0.3-0.3h0.3l0.3-0.3l2.4-1l0.7-0.7l1-0.3l0.7-0.7h0.7l0.7-0.7l1.7-0.7l1.7-1.4h0.7l0.7-0.7h0.7l0.7-0.7h0.3l1.4-1l1-0.3l1-1l1-0.3
		l2.8-2.1h0.7l2.8-2.1h0.7l1.4-1.4h0.7l0.7-0.7h0.3l0.7-0.7h0.3l0.7-0.7h0.3l0.7-0.7h0.3l0.7-0.7h0.3l0.7-0.7h0.3l1.4-1.4l1-0.3l1-1
		h0.3l0.7-0.7h0.3l1.4-1.4h0.3l2.4-2.1h0.3l0.7-0.7h0.3l2.1-2.1h0.3l1.4-1.4h0.3l2.4-2.4h0.3l1-1h0.3l6.9-6.9h0.3l4.2-4.2v-0.3
		l4.2-4.2v-0.3l2.1-2.1v-0.3l2.4-2.4v-0.3l1-1v-0.3l1.4-1.4v-0.3l0.7-0.7v-0.3l0.7-0.7v-0.3l0.7-0.7v-0.3l1.4-1.4l0.3-1l1-1V248
		l0.3-0.3l0.3-1l1.4-1.7v-0.7l0.7-0.7v-1l0.3-0.3h0.3v-3.8H469.5z"/>
	<path class="st0" d="M78.5,227.7l-0.3,0.3v0.7l0.3,0.3h1.4l0.7,0.7h1l0.3,0.3h0.3l0.3,0.3h0.7l1,0.7h1l0.7,0.7h0.7l0.7,0.7H88
		l1,0.7h1l1.4,1h0.7l0.3,0.3h0.3l0.7,0.7l1.7,0.7l1,1l1,0.3l0.7,0.7h0.3l0.7,0.7h0.3l1.4,1.4h0.7l1.4,1.4h0.3l0.7,0.7h0.3l2.1,2.1
		h0.3l0.7,0.7h0.3l3.5,3.5h0.3l2.4,2.4v0.3l4.5,4.5v0.3l1.4,1.4v0.3l2.8,3.1v0.3l0.7,0.7v0.3l0.7,0.7v0.3l1.4,1.4v0.3l0.7,0.7v0.3
		l0.7,0.7v0.3l0.7,0.7v0.3l2.1,2.8l0.3,1l1,1v0.7l0.7,0.7l0.3,1l0.7,0.7l0.3,1l0.7,0.7v0.7l0.7,0.7v0.7l0.7,0.7v0.7l1,1v0.3l1,1.7
		v0.7l0.7,0.7v0.7l0.7,1v0.7l0.7,0.7v0.7l0.7,0.7v0.7l0.7,0.7v0.3l0.7,1v0.7l0.7,0.7v0.7l1.4,2.4v0.7l0.7,1v0.7l0.7,0.7v1l0.7,1v0.7
		l0.7,1v0.7l0.7,1v0.7l0.7,0.7v0.7l0.7,1v1l0.7,0.7v1l1.4,2.4v1l0.7,1v0.7l0.7,1v0.7l0.3,0.3v0.3l0.3,0.3v0.7l0.7,1v1l0.7,1v1
		l0.7,0.7v0.7l0.3,0.3v0.3l0.3,0.3v0.7l0.7,1v1l0.7,1v0.7l0.3,0.3l0.3,1.7l0.7,0.7v1l0.7,1v0.7l0.7,1v0.7l0.3,0.3v0.3l0.3,0.3v0.7
		l0.7,1v1l0.7,1v0.7l0.3,0.3v0.3l0.3,0.3v0.7l0.7,1v1l0.7,0.7v0.7l0.7,1v0.7l0.7,1v0.7l0.7,1v0.7l0.7,1v0.7l0.7,1v0.7l0.7,1v0.7
		l0.3,0.3v0.3l0.7,1v0.7l1,1.7v0.7l0.7,0.7v0.7l0.7,1v0.7l1.4,2.4v0.7l0.7,0.7v0.7l1,1.7l0.3,1.7l0.7,0.7v0.3l0.7,1v0.7l0.7,0.7v0.3
		l0.7,1v0.7l0.7,0.7v0.3l2.1,3.8v0.7l0.7,0.7v0.3l0.7,1v0.7l1.4,1.7v0.7l1.4,1.7v0.7l0.7,0.7l0.3,1l0.7,0.7l0.3,1l0.7,0.7v0.3
		l0.3,0.3l0.7,1.7l0.7,0.7l0.3,1l2.1,2.8l0.3,1l1,1v0.7l1,1l0.3,1l0.7,0.7v0.3l0.7,0.7v0.3l0.7,0.7v0.3l0.7,0.7v0.3l0.7,0.7v0.3
		l0.7,0.7v0.3l0.7,0.7v0.3l0.7,0.7v0.3l0.7,0.7v0.3l0.7,0.7v0.3l1.4,1.4v0.3l1,1v0.3l1.7,1.7v0.3l0.7,0.7v0.3l1.4,1.4v0.3l0.7,0.7
		v0.3l2.1,2.1v0.3l1.4,1.4v0.3l2.1,2.1v0.3l1.4,1.4v0.3l4.2,4.2v0.3l3.5,3.5v0.3l2.1,2.1h0.3l1.7,1.7h0.3l0.3,0.3v0.3l2.1,2.1h0.3
		l2.8,2.8h0.7l2.8,2.8h0.3l2.1,1.7l1,0.3l0.7,0.7h0.3l2.8,2.1h0.7l0.7,0.7h1l0.3,0.3v0.3h1.7v-1h-0.3l-0.3-0.3v-0.3l-0.3-0.3l-0.3-1
		l-0.7-0.7l-0.7-1.7l-2.1-2.8v-0.7l-0.7-0.7l-0.7-1.7l-0.7-0.7v-0.3l-1.7-3.1v-0.7l-1.7-3.1v-0.7l-0.7-0.7v-0.7l-0.7-1V438l-1.4-2.4
		v-0.7l-0.7-1v-0.7l-0.7-1v3.8l-0.3-0.3v-0.3l-0.3-0.3v-0.7l-0.7-1V432l-0.7-0.7v-0.7l-0.7-1v-1l-0.3-0.3V428l-0.3-0.3V427l-0.7-1
		v-1.4l-0.7-0.7v-1.4l-0.7-1v-1.7l-0.7-0.7V417l-0.7-0.7v-1.4l-0.7-1v-1.4l-0.3-0.3v-1l-0.3-0.3v-1l-0.3-0.3v-1l-0.3-0.3v-2.8
		l-0.3-0.3v-0.7l-0.3-0.3V401l-0.3-0.3v-1l-0.3-0.3v-4.2l-0.7-1v-3.5l-0.3-0.3v-1l-0.3-0.3V385l-0.3-0.3v-2.8l-0.3-0.3v-4.2
		l-0.3-0.3v-5.6l-0.3-0.3v-15.6l0.3-0.3v-3.5l0.3-0.3v-5.6l-0.3-0.3l0.3-0.3v-4.2l0.3-0.3v-1.4l0.3-0.3v-5.9l0.3-0.3v-1.7l0.3-0.3
		v-3.8l0.3-0.3v-0.7l0.3-0.3v-4.5l0.7-1v-4.2l0.7-1V312l0.3-0.3V311l0.3-0.3v-3.5l0.3-0.3v-1l0.3-0.3v-2.1l0.3-0.3V301l0.3-0.3V299
		l0.3-0.3V298l0.3-0.3v-3.1l0.3-0.3v-1l0.3-0.3v-1.4l0.3-0.3v-1.7l0.3-0.3v-2.1l0.7-1v-2.4l0.3-0.3v-1l0.3-0.3v-2.4l0.3-0.3v-0.7
		l0.3-0.3V276l0.3-0.3v-1.4l0.3-0.3v-1.7l0.7-1V268l0.3-0.3v-1l0.3-0.3v-1.7l0.3-0.3v-1l0.3-0.3v-2.4l0.3-0.3v-0.7l0.3-0.3V257
		l0.3-0.3v-1l0.3-0.3V252l0.7-1v-2.4l0.3-0.3v-0.7l0.3-0.3v-2.8l-0.7-0.7V243l-0.3-0.3h-4.5l-0.7,0.7h-0.7l-1.4,1.4h-0.3l-0.7,0.7
		h-0.3l-0.3,0.3v0.3l-5.6,5.6v0.3l-8,8h-0.3l-2.1,2.1h-0.3l-1.7,1.4h-0.7l-1,0.7h-4.2l-1-0.7h-0.7l-1.7-1.7h-0.3l-1-1h-0.3l-1.4-1.4
		l-1-0.3l-1-1h-0.3l-0.7-0.7h-0.3l-1-1l-1-0.3l-1.4-1.4h-0.3l-0.7-0.7h-0.3l-1.4-1.4h-0.7l-1.4-1.4H182l-1.7-1.4l-1-0.3l-1-1h-0.7
		l-1-1l-1-0.3l-0.7-0.7h-0.3l-0.7-0.7l-1.7-0.7l-0.7-0.7h-0.7l-2.8-2.1h-0.7l-0.7-0.7h-0.7l-0.7-0.7h-0.7l-0.7-0.7h-0.7l-0.7-0.7
		l-1.7-0.3l-0.3-0.3h-0.3l-0.3-0.3l-2.4-1l-0.7-0.7h-1l-1-0.7h-1l-0.7-0.7h-0.7l-0.7-0.7h-1.4l-0.3-0.3h-0.3l-0.3-0.3h-0.7l-1-0.7
		h-1.4l-1-0.7h-1l-0.3-0.3h-0.7l-0.3-0.3h-1l-1-0.7H140l-0.3-0.3H139l-0.3-0.3h-1.4l-1-0.7h-2.1l-0.7-0.7H131l-0.3-0.3h-1.4
		l-0.3-0.3h-2.8l-0.3-0.3h-1l-0.3-0.3h-2.8l-0.7-0.7H115l-0.3-0.3h-1l-0.3-0.3h-22l-0.3,0.3h-0.7l-0.3,0.3H83l-0.7,0.7h-2.8
		l-0.3,0.3h-0.7V227.7z"/>
	<path class="st0" d="M265.3,74.6h-0.7l-0.3,0.3v0.7l-0.7,0.7V77l-0.7,0.7v0.7l-0.7,0.7v0.3l-0.3,0.3V80l-0.3,0.3v0.3l-0.3,0.3
		l-1,2.4l-0.7,0.7l-0.7,1.7l-0.7,0.7v0.7l-0.7,0.7v0.7l-0.7,0.7l-0.3,1l-1,1l-0.3,1l-1,1V94l-0.7,0.7V95l-2.8,2.8v0.3l-1.4,1.4v0.3
		l-0.3,0.3h-0.3v0.3l-2.4,2.4H246v0.3l-0.3,0.3h-0.3l-1.7,1.7h-0.3l-1.7,1.7h-0.3l-0.7,0.7h-0.3l-1.4,1.4h-0.7l-1.4,1.4l-1,0.3
		l-0.7,0.7l-1,0.3l-0.7,0.7H232l-0.7,0.7l-1,0.3l-0.7,0.7l-1,0.3l-0.7,0.7h-0.7l-0.7,0.7h-0.7l-1,0.7H224l-0.7,0.7h-1l-0.7,0.7h-0.3
		l-1,0.7h-0.7l-0.7,0.7h-0.7l-1,0.7h-0.7l-0.7,0.7h-1l-0.7,0.7h-0.7l-1,0.7h-1l-0.7,0.7H210l-1.7,1l-1.7,0.3l-1,0.7h-1l-1,0.7h-1
		l-0.7,0.7h-1l-1,0.7h-1l-0.7,0.7h-1.4l-0.7,0.7h-1l-1,0.7h-1l-1,0.7h-1l-0.7,0.7h-1l-1,0.7H187l-0.7,0.7h-0.7l-1,0.7h-1.4l-0.7,0.7
		h-1l-1,0.7h-1.4l-0.7,0.7h-1l-1,0.7h-1l-1,0.7h-1l-0.7,0.7h-1.4l-1,0.7h-1l-1,0.7h-1.4l-0.7,0.7h-1l-0.7,0.7h-1.4l-0.7,0.7H161
		l-0.7,0.7h-1.4l-0.7,0.7h-1l-1,0.7h-0.7l-1,0.7h-1l-0.7,0.7h-1l-1,0.7h-0.7l-1,0.7h-0.7l-0.3,0.3h-0.3l-0.3,0.3h-0.7l-1,0.7h-1
		l-0.7,0.7h-0.7l-1,0.7H140l-1,0.7h-0.7l-0.7,0.7h-1l-0.3,0.3H136l-0.3,0.3H135l-1,0.7h-1l-0.7,0.7h-0.7l-1,0.7h-0.7l-2.4,1.4h-0.7
		l-0.7,0.7h-0.7l-1,0.7h-0.7l-1,0.7H122l-0.7,0.7h-0.7l-0.7,0.7h-0.7l-1.7,1h-0.7l-0.3,0.3h-0.3l-0.7,0.7h-0.7l-1,0.7h-0.7l-0.7,0.7
		h-0.7l-0.7,0.7h-0.7l-0.7,0.7h-0.7l-0.7,0.7H107l-0.7,0.7h-0.7l-0.7,0.7h-0.7l-0.7,0.7h-0.7l-0.7,0.7h-0.3l-1,0.7h-0.7l-0.7,0.7
		h-0.7l-0.7,0.7l-1,0.3l-0.7,0.7l-1,0.3l-0.7,0.7l-1.7,0.7l-0.7,0.7h-0.7l-0.3,0.3h-0.3l-0.7,0.7l-1,0.3l-0.7,0.7h-0.7l-2.8,2.1
		h-0.7l-2.8,2.1l-1,0.3l-1,1h-0.7l-0.7,0.7h-0.3l-0.7,0.7h-0.3l-0.7,0.7h-0.3l-0.7,0.7h-0.3l-0.7,0.7h-0.3l-0.7,0.7h-0.3l-0.7,0.7
		h-0.3l-0.7,0.7h-0.3l-0.7,0.7h-0.3l-0.7,0.7h-0.3l-1.4,1.4h-0.3l-0.7,0.7h-0.3l-0.7,0.7h-0.3l-0.7,0.7h-0.3l-1.4,1.4h-0.3l-0.7,0.7
		h-0.3L60,192l-1,0.3l-1.7,1.7H56l-1.4,1.4h-0.3l-2.1,2.1h-0.3l-0.7,0.7h-0.3l-2.8,2.8h-0.3v0.3l-0.3,0.3h-0.3l-1.4,1.4h-0.3
		l-4.9,4.9H40v0.3l-0.3,0.3h-0.3v0.3l-0.3,0.3h-0.3l-0.7,0.7v0.3l-0.3,0.3h-0.3l-1.4,1.4v0.3l-1,1h-0.3v0.3l-0.3,0.3h-0.3v0.3
		l-5.6,5.6v0.3l-1.4,1.4v0.3l-0.3,0.3h-0.3v0.3l-2.1,2.1v0.3l-1,1v0.3l-1.7,1.7v0.3l-0.7,0.7v0.3l-2.1,2.4v0.3l-0.7,0.7v0.3
		l-0.7,0.7v0.3l-2.1,2.8v0.7l-0.7,0.7v0.3l-0.7,0.7v0.7l-0.7,0.7v2.4H16l0.7-0.7h0.7l0.7-0.7l1.7-0.7l0.7-0.7h0.7l0.7-0.7h0.3
		l0.7-0.7l1.7-0.7l0.7-0.7H26l0.7-0.7h0.7l0.7-0.7h0.3l1-0.7h0.7L31,236h0.3l2.4-1.4h0.7l0.7-0.7h0.7l0.7-0.7h0.7l0.7-0.7h0.7
		l0.7-0.7H40l1-0.7h0.7l1-0.7h0.7l0.7-0.7h1l1-0.7h0.7l0.7-0.7h1l1-0.7h0.7l0.3-0.3h0.3l0.3-0.3h0.7l1-0.7h1l1-0.7h1.4l0.7-0.7h1
		l1-0.7h1.4l0.7-0.7h1.4l1-0.7h1.7l0.7-0.7h1.4l1-0.7h1.4l0.3-0.3h0.7l0.3-0.3h1.7l1-0.7H76l1-0.7h1.7l0.3-0.3h0.7l0.3-0.3h2.4
		l0.3-0.3h0.7l0.3-0.3h3.8l1-0.7h2.8l0.3-0.3H93l0.3-0.3h6.6l0.3-0.3h0.7l0.3-0.3h17l0.3-0.3l0.3,0.3H132l0.3,0.3h1.4l0.3,0.3h5.2
		l0.3,0.3h1.7l0.3,0.3h4.5l1,0.7h5.6l0.3,0.3h0.7l0.3,0.3h3.8l0.3,0.3h1.4l0.3,0.3h2.4l0.3,0.3h1.7l0.3,0.3h2.4l0.3,0.3h0.7l0.3,0.3
		h2.4l0.3,0.3h1l0.3,0.3h2.1l0.3,0.3h1l0.3,0.3h1.7l0.3,0.3h0.7l0.3,0.3h2.1l1,0.7h2.8l0.3,0.3h1l0.3,0.3h2.8l0.3,0.3h1.4l0.3,0.3
		h1.7l0.3,0.3h0.7l0.3,0.3h2.8l0.3,0.3h0.7l0.3,0.3h2.1l0.3,0.3h1l0.3,0.3h1.7l0.3,0.3h1l0.3,0.3h2.1l1,0.7h2.8l0.3,0.3h1.4l0.3,0.3
		h1.7l0.3,0.3h1l0.3,0.3h2.4l0.3,0.3h1l0.3,0.3h2.4l0.3,0.3h0.7l0.3,0.3h3.5l1,0.7h4.9l1-1.4v-1.4l-0.3-0.3l-0.7-1.7l-1.7-1.7v-0.3
		l-3.5-3.1H228l-2.1-2.1h-0.3l-0.7-0.7h-0.3l-2.1-2.1h-0.3l-0.7-0.7h-0.3l-1.7-1.7h-0.3l-1-1h-0.3l-5.6-5.6h1.7l-2.1-2.1h-0.3
		l-3.1-3.1v-0.3l-0.7-0.7v0.5l-0.7-0.7v-1l-0.7-1v-0.7l0.3-0.3l0.3-1.7l0.3-0.3l0.3-1l0.7-0.7V193l2.4-2.4h0.3v-0.3l2.8-2.8v-0.3
		l0.3-0.3h0.3l1.4-1.4V185l0.3-0.3h0.3v-0.3l5.6-5.6v-0.3l4.9-5.2V173l0.7-0.7V172l2.1-2.1v-0.3l1.4-1.4v-0.3l1.7-2.1v-0.3l1.7-1.7
		v-0.3l2.8-3.1v-0.3l0.7-0.7v-0.3l0.7-0.7v-0.3l0.7-0.7v-0.3l0.7-0.7v-0.3l0.7-0.7v-0.3l1.4-1.4V153l0.7-0.7l0.3-1l1-1V150l0.3-0.3
		l0.3-1l0.7-0.7v-0.3l0.3-0.3l1-2.4l0.7-0.7v-0.7l0.7-0.7v-0.7l0.7-0.7v-0.3l1.4-2.4v-0.7l0.7-0.7v-0.7l0.7-0.7v-0.7l0.7-1v-0.7
		l0.7-1v-0.7l0.7-0.7v-0.7l0.3-0.3v-0.3l0.3-0.3v-0.7l0.7-1v-1l0.3-0.3v-0.3l0.3-0.3v-0.7l0.7-1v-1l0.7-0.7v-1.7l0.7-1v-0.7l0.3-0.3
		v-0.7l0.3-0.3v-1l0.7-1v-1.4l0.3-0.3v-0.7l0.3-0.3V110l0.7-0.7v-1.7l0.3-0.3v-0.7l0.3-0.3v-2.1l0.3-0.3V103l0.3-0.3v-2.1l0.3-0.3
		v-1l0.3-0.3v-2.4l0.3-0.3v-1l0.3-0.3v-2.4l0.3-0.3v-0.7l0.3-0.3v-5.6L265,85v-0.7l0.3-0.3V74.6z"/>
	<path class="st0" d="M385.9,227"/>
	<path class="st0" d="M387.1,229.3c-0.2,0-0.4-0.1-0.6-0.2"/>
	<path class="st0" d="M382.9,228h-0.3l-3.5-3.5h-0.3l-1.4-1.4h-0.3l-0.3-0.3v-0.3h-0.3l-0.3-0.3v-0.3l-3.1-3.1v-0.3l-3.8-3.8v-0.3
		l-1-1v-0.3l-2.4-2.4V210l-0.7-0.7V209l-1.4-1.4v-0.7l-1.1-1.1c-0.2-0.2-0.4-0.5-0.5-0.8l0-0.1c-0.1-0.3-0.3-0.6-0.5-0.8l-0.3-0.3
		c-0.2-0.2-0.4-0.5-0.5-0.8l-0.2-0.5l-0.7-0.7l-0.3-1l-0.7-0.7v-0.7l-0.7-0.7c-0.2-0.2-0.4-0.5-0.5-0.8l0-0.2
		c-0.1-0.2-0.2-0.5-0.4-0.7l-1.2-1.4v-0.3l-0.3-0.3l-1-2.4l-0.7-0.7v-0.7l-0.7-0.7v-0.7l-0.7-0.7v-0.3l-0.3-0.3v-0.3l-0.3-0.3
		l-1-2.4l-0.7-0.7v-0.3l-0.3-0.3v-0.7l-0.7-1v-0.7l-0.7-0.7v-0.3l-0.7-1v-0.7l-1.4-2.4v-0.7l-0.3-0.3v-0.3l-0.3-0.3v-0.7l-0.7-1v-1
		l-0.7-0.7v-0.7l-1.4-2.4V168l-0.7-1v-0.7l-0.3-0.3l-0.3-1.7l-0.3-0.3v-0.3l-0.3-0.3v-0.7l-0.7-1V161l-0.3-0.3l-0.2-1
		c-0.1-0.5-0.2-0.9-0.5-1.3l-0.6-1.1v-0.7l-0.3-0.3v-1l0,0c-0.5-0.6-0.7-1.4-0.7-2.2V152l-0.3-0.3l-0.2-0.9
		c-0.1-0.6-0.3-1.1-0.6-1.5L337,149v-1l-0.3-0.3l-0.3-1.7l-0.7-0.7v-1.4l-0.3-0.3V143l-0.3-0.3V142l-0.7-1v-0.7l-0.3-0.3v-0.7
		l-0.3-0.3v-0.7l-0.3-0.3v-0.7l-0.3-0.3v-1l-0.3-0.3V135l-0.3-0.3V134l-0.3-0.3V133l-0.3-0.3V132l-0.3-0.3l-0.2-1.3
		c0-0.3-0.2-0.5-0.3-0.8l-0.1-0.1c-0.2-0.3-0.4-0.7-0.4-1.1v-0.2c0-0.4-0.1-0.8-0.4-1.1l-0.4-0.5v-0.7l-0.3-0.3l-0.2-1.3
		c0-0.3-0.2-0.5-0.3-0.8l-0.1-0.1c-0.2-0.3-0.4-0.7-0.4-1.1v-0.2c0-0.4-0.1-0.8-0.4-1.1l-0.4-0.5v-0.7l-0.3-0.3v-0.7l-0.3-0.3v-0.7
		l-0.3-0.3l-0.2-0.9c-0.1-0.6-0.3-1.1-0.6-1.5l-0.2-0.3v-0.7l-0.3-0.3v-0.7l-0.3-0.3v-1l-0.3-0.3v-0.3l-0.3-0.3v-0.7l-0.7-1v-1
		l-0.7-1v-0.7l-0.7-1v-0.7l-0.3-0.3V103l-0.3-0.3V102l-0.7-1v-1l-0.7-1v-0.7l-0.7-1v-0.7l-0.7-1v-0.7l-0.7-1V93l-0.7-0.7v-0.7
		l-0.7-1v-0.7l-0.7-1v-0.7l-0.7-0.7v-0.7l-0.7-1V85l-0.7-0.7v-0.7l-0.7-1v-0.7l-0.7-0.7v-0.7l-1.4-2.4v-0.7l-0.3-0.3v-0.3l-0.3-0.3
		l-1-2.4l-0.7-0.7l-1-2.4l-0.7-0.7V70l-0.7-1c-0.2-0.2-0.3-0.5-0.4-0.8l-0.8-2l-0.7-0.7l-0.3-1l-0.7-0.7l-1-2.4l-0.7-0.7l-0.3-1
		l-0.7-0.7l-0.3-1l-0.7-0.7v-0.7l-1.4-1.4v-0.7l-1.4-1.4v-0.3l-0.7-0.7v-0.3l-0.7-0.7v-0.3l-0.7-0.7v-0.3l-0.7-0.7v-0.3l-0.7-0.7
		v-0.3l-0.7-0.7v-0.3l-0.7-0.7v-0.3l-1.4-1.4v-0.3l-0.7-0.7v-0.3l-1.4-1.4v-0.3l-0.7-0.7v-0.3L287,39v-0.3l-2.8-3.1v-0.3l-1-1V34
		l-3.8-3.8v-0.3h-0.3l-0.3-0.3v0c0-1-0.4-2-1.1-2.7l-1.7-1.7h-0.3l-0.3-0.3v-0.3l-1.4-1.4h-0.3l-3.5-3.5h-0.3L266,19h-0.3l-0.3-0.3
		v-0.3H265l-1.4-1.4h-0.3l-0.7-0.7h-0.3l-0.7-0.7h-0.3l-2.8-2.1h-0.3l-1-0.7h-0.7l0,0c-0.6-0.5-1.4-0.7-2.2-0.7h-0.4v1.4l0.7,0.7
		v0.7l1.4,1.7v0.7l0.7,0.7v0.7l0.7,0.7v0.7l1.4,1.7v0.7l1.4,1.7v0.3l0.3,0.3v0.7l0.3,0.3v0.7l0.7,0.7V28l0.7,1v0.7l0.7,0.7v1
		l0.7,0.7v1l0.7,0.7v1l0.3,0.3v0.3L265,36v0.7l0.7,1v1l0.7,1v1l0.4,0.5c0.2,0.3,0.4,0.7,0.4,1.1v0.2c0,0.4,0.1,0.8,0.4,1.1l0.4,0.5
		v1l0,0c0.5,0.6,0.7,1.4,0.7,2.2v0.9l0.7,0.7v0.8c0,0.4,0.1,0.8,0.4,1.1l0,0c0.2,0.3,0.4,0.7,0.4,1.1v0.5c0,0.4,0.1,0.8,0.4,1.1l0,0
		c0.2,0.3,0.4,0.7,0.4,1.1v1.1l0.3,0.3v1l0.3,0.3V59l0.3,0.3v1l0.3,0.3V63l0.3,0.3V64l0.3,0.3v2.1l0.3,0.3V69l0.3,0.3v3.1l0.3,0.3
		v2.1l0.3,0.3v4.2l0.3,0.3v1.7l0.3,0.3v5.9l0.3,0.3v2.1l-0.3,0.3v0.7l0.3,0.3V94l-0.3,0.3v11.1l-0.3,0.3v2.1l-0.3,0.3v5.9l-0.3,0.3
		v0.7l-0.3,0.3v4.2l-0.3,0.3v1.7l-0.3,0.3v3.1l-0.3,0.3v1.4l-0.3,0.3v2.1l-0.7,0.7v1.8c0,0.4-0.1,0.8-0.4,1.1l0,0
		c-0.2,0.3-0.4,0.7-0.4,1.1v1.2c0,0.4-0.1,0.8-0.4,1.1l0,0c-0.2,0.3-0.4,0.7-0.4,1.1v1.5l-0.3,0.3v1l-0.3,0.3v1.7l-0.3,0.3v0.7
		l-0.3,0.3v1.1c0,0.4-0.1,0.8-0.4,1.1l0,0c-0.2,0.3-0.4,0.7-0.4,1.1v1.1l-0.3,0.3v0.7l-0.3,0.3v0.8c0,0.4-0.1,0.8-0.4,1.1l0,0
		c-0.2,0.3-0.4,0.7-0.4,1.1v0.5c0,0.4-0.1,0.8-0.4,1.1l0,0c-0.2,0.3-0.4,0.7-0.4,1.1v0.8l-0.7,0.7v1.1c0,0.4-0.1,0.8-0.4,1.1l0,0
		c-0.2,0.3-0.4,0.7-0.4,1.1v1.1l-0.3,0.3v0.7l-0.3,0.3v1l-0.3,0.3v1l-0.3,0.3v0.7l-0.3,0.3v1l-0.3,0.3v1l-0.7,1v1l-0.4,0.5
		c-0.2,0.3-0.4,0.7-0.4,1.1v0.2c0,0.4-0.1,0.8-0.4,1.1l-0.4,0.5v1l-0.3,0.3v0.7l-0.3,0.3v1.4l-0.7,0.7v1.4l-0.3,0.3v1l-0.3,0.3v0.7
		l0,0c-0.5,0.6-0.7,1.4-0.7,2.2v0.2l-0.7,0.7v1.5c0,0.4-0.1,0.8-0.4,1.1l0,0c-0.2,0.3-0.4,0.7-0.4,1.1v0.2c0,0.4-0.1,0.8-0.4,1.1
		l0,0c-0.2,0.3-0.3,0.7-0.3,1.1v0.8l-0.3,0.3v0.7l-0.3,0.3v1.7l-0.7,0.7v2.1l-0.3,0.3v0.7l-0.3,0.3v1.4l-0.3,0.3v0.7l-0.3,0.3v1.4
		l-0.3,0.3v1l-0.3,0.3v1.4l-0.3,0.3v1l-0.3,0.3v1.7l-0.3,0.3v1.4l-0.3,0.3v1.4l-0.3,0.3v1l-0.3,0.3v1l-0.3,0.3v0.7l-0.3,0.3v1.8
		c0,0.4-0.1,0.8-0.3,1.1h0c-0.2,0.3-0.3,0.7-0.3,1.1v2.6c0,0.4-0.1,0.8-0.3,1.1h0c-0.2,0.3-0.3,0.7-0.3,1.1v1.1l0.3,0.3v0.3l1,1h0.3
		l0.3,0.3v0.3h1l1-0.7h0.7l5.2-5.2v-0.3l3.8-4.2v-0.3l1.4-1.4v-0.3l1.4-1.4V214l1.7-1.7V212l3.5-3.5v-0.3l1.7-1.7h0.3l3.1-3.1h0.7
		l0.3-0.3h0.7l0.3-0.3h3.1l0.3,0.3l1.7,0.3l0.7,0.7h0.7l1.4,1.4h0.3l2.1,2.1h0.3l3.5,3.5h0.3l1.7,1.7h0.3l2.5,2.5
		c0.2,0.2,0.5,0.4,0.8,0.5l0.1,0c0.3,0.1,0.6,0.3,0.8,0.5l1.1,1.1h0.3l0.7,0.7h0.3l1.4,1.4h0.3l0.7,0.7h0.3l1.4,1.4h0.3l0.7,0.7h0.3
		l0.7,0.7c0.2,0.2,0.5,0.4,0.8,0.5l0.2,0.1c0.2,0.1,0.4,0.2,0.6,0.3l2.5,1.9h0.7l0.7,0.7l0.1,0c0.6,0.2,1.2,0.5,1.6,1l0.3,0.3h0.7
		l0.7,0.7h0.3l0.3,0.3h0.3l0.3,0.3h0.3l0.3,0.3l2.4,1l0.7,0.7h1l0.7,0.7h0.7l2.4,1.4h0.7l1,0.7h0.7l0.7,0.7h0.7l0.7,0.7h1l1,0.7h0.7
		l0.7,0.7h1.7l0.3,0.3h0.3l0.3,0.3h0.7l1,0.7h1l0.7,0.7h1.4l0.7,0.7h1.4l0.7,0.7h1.4l0.7,0.7h2.1l0.3,0.3h0.7l0.3,0.3h1l0,0
		c0.6,0.5,1.4,0.7,2.2,0.7h0.6c0.4,0,0.8,0.1,1.1,0.3v0c0.3,0.2,0.7,0.3,1.1,0.3h1.8l0.3,0.3h1.7l0.3,0.3h1.7l0.3,0.3h1l0.3,0.3h2.1
		l0.3,0.3h0.7l0.3,0.3h4.2l0.3,0.3h4.5l0.3,0.3h5.6l0.3,0.3h2.4l0.3,0.3h2.4l0.3-0.3h2.8l0.3,0.3h1.4l0.3-0.3h3.1l0.3,0.3h2.1
		l0.3-0.3h5.6l0.3-0.3h6.3l0.3-0.3h0.7l0.3-0.3h4.5l0.7-0.7h1V243h-0.3l-0.3-0.3h-1.1c-0.4,0-0.8-0.1-1.1-0.3v0
		c-0.3-0.2-0.7-0.3-1.1-0.3h-0.3c-0.8,0-1.6-0.2-2.2-0.7l0,0h-0.7l-1-0.7h-0.7l-0.7-0.7h-0.7l-1-0.7h0.7l-0.7-0.7h-0.7l-0.7-0.7
		h-0.7l-0.7-0.7h-0.7l-0.7-0.7l-1-0.3l-0.7-0.7l-1-0.3l-0.7-0.7H397l-0.7-0.7H396l-1.1-0.8c-0.2-0.1-0.4-0.2-0.6-0.3l-0.2-0.1
		C393.8,232.4,383.1,228.2,382.9,228L382.9,228c-0.2-0.2,0,0.1-0.3,0"/>
</g>
<g>
	<path class="st0" d="M552.4,266.3c2.8,3,6.1,6.1,10,9.3c3.8,3.2,8,6,12.7,8.6s9.8,4.7,15.3,6.4c5.5,1.6,11.5,2.4,17.8,2.4
		c3.7,0,7.4-0.5,11.1-1.6c3.7-1.1,7.1-2.7,10.1-4.7c3-2.1,5.5-4.6,7.3-7.5s2.8-6.2,2.8-10c0-8-3.9-14.3-11.7-18.8
		s-20.2-8.9-37.2-13.2c-8.3-2-15.9-4.8-23-8.5s-13.2-8.2-18.3-13.4s-9.1-11.2-11.9-17.9c-2.8-6.7-4.2-14.2-4.2-22.5
		c0-9.1,1.6-17.7,4.9-25.8c3.3-8,8.2-15.2,14.8-21.4c6.6-6.2,14.9-11.1,24.8-14.7c9.9-3.6,21.6-5.4,35.1-5.4
		c11.1,0,20.9,1.1,29.4,3.4s15.7,5,21.7,8.2s10.9,6.4,14.7,9.8s6.7,6,8.6,8l-28.4,31.3c-2.4-2-5.2-4.1-8.3-6.4
		c-3.2-2.3-6.7-4.4-10.6-6.4c-3.9-2-8.2-3.6-12.9-4.9c-4.7-1.3-9.6-2-14.8-2c-3.5,0-6.9,0.5-10.3,1.6c-3.4,1.1-6.4,2.6-9.1,4.4
		c-2.7,1.9-4.9,4-6.5,6.5s-2.4,5.2-2.4,8c0,7.4,3.9,13.4,11.7,17.9c7.8,4.6,18.6,8.4,32.3,11.4c8,2,15.9,4.6,23.7,8
		c7.7,3.4,14.6,7.8,20.7,13.2c6.1,5.4,11,12.1,14.7,20.1c3.7,7.9,5.5,17.6,5.5,28.9c0,9.8-2.2,18.8-6.5,27.1
		c-4.4,8.3-10.3,15.4-17.8,21.5s-16.3,10.8-26.4,14.2c-10.1,3.4-21,5.1-32.8,5.1c-10.9,0-20.8-1-29.7-3.1s-17-4.8-24.1-8.2
		c-7.2-3.4-13.7-7.2-19.4-11.6c-5.8-4.3-10.7-8.8-14.8-13.4L552.4,266.3z"/>
	<path class="st0" d="M725,113.6h47v112.9l46.7-48.3h53.2L817,234.6l62.3,96.6h-54.5l-39.1-64.6l-13.7,14v50.6h-47V113.6z"/>
	<path class="st0" d="M904.1,355.3c2.6,2,5.5,3.7,8.6,5.2c3.2,1.5,6.6,2.3,10.3,2.3c5,0,9.2-1.6,12.6-4.7c3.4-3.2,6.6-8.5,9.6-16.1
		l4.6-12.4L880,178.2h53.5l38.2,96.6l34.6-96.6h49.9l-62.6,152c-3.5,8.5-6.9,16.9-10.3,25.3c-3.4,8.4-7.5,15.9-12.4,22.5
		S960,390,953,394.1c-7.1,4.1-15.9,6.2-26.6,6.2c-8.3,0-15.8-1.1-22.5-3.3c-6.7-2.2-12.9-5.3-18.6-9.5L904.1,355.3z"/>
	<path class="st0" d="M1075.3,178.2h45l1.3,16.6c5-6.1,11.6-11,19.7-14.7c8.2-3.7,16.7-5.5,25.6-5.5c17.6,0,31.6,5.2,41.9,15.7
		c10.3,10.4,15.5,25.9,15.5,46.3v94.6h-47v-88.1c0-8.5-2.1-15.2-6.4-20.2c-4.2-5-10.2-7.5-17.8-7.5c-5.2,0-9.8,0.9-13.7,2.8
		c-3.9,1.9-7.2,4.3-9.8,7.3c-2.6,3-4.6,6.6-5.9,10.6s-2,8.3-2,12.9v82.2H1075v-153H1075.3z"/>
	<path class="st0" d="M1257.7,178.2h47v88.1c0,8.7,2.1,15.6,6.4,20.6c4.2,5,10.5,7.5,18.8,7.5c4.8,0,9-0.9,12.7-2.8
		c3.7-1.8,6.9-4.3,9.5-7.3s4.6-6.6,5.9-10.8c1.3-4.1,2-8.4,2-12.7v-82.5h46.7v153h-45l-1.3-16.3c-5,5.9-11.6,10.7-19.7,14.5
		s-16.7,5.7-25.6,5.7c-17.6,0-31.5-5.2-41.8-15.7c-10.2-10.4-15.3-25.9-15.3-46.3v-95H1257.7z"/>
	<path class="st0" d="M1441.4,113.6h47v217.6h-47V113.6z"/>
</g>
<polygon class="st1" points="1940,440.5 1947.8,440.5 1947.8,440.5 "/>
</svg>
